<mxfile host="app.diagrams.net" modified="2024-07-11T07:08:44.060Z" agent="Mozilla/5.0 (Macintosh; Intel Mac OS X 10_15_7) AppleWebKit/537.36 (KHTML, like Gecko) Chrome/120.0.0.0 Safari/537.36" etag="gDNwpRzp353hkIVtWWaa" version="24.6.4" type="github">
  <diagram name="第 1 页" id="zeDQYPmnItenapbLxEYK">
    <mxGraphModel dx="616" dy="740" grid="1" gridSize="10" guides="1" tooltips="1" connect="1" arrows="1" fold="1" page="1" pageScale="1" pageWidth="827" pageHeight="1169" math="0" shadow="0">
      <root>
        <mxCell id="0" />
        <mxCell id="1" parent="0" />
        <mxCell id="cfKoiOyQj-taZWhqwXhv-8" style="edgeStyle=orthogonalEdgeStyle;rounded=0;orthogonalLoop=1;jettySize=auto;html=1;exitX=1;exitY=0.5;exitDx=0;exitDy=0;entryX=0;entryY=0.5;entryDx=0;entryDy=0;" edge="1" parent="1" source="cfKoiOyQj-taZWhqwXhv-1" target="cfKoiOyQj-taZWhqwXhv-2">
          <mxGeometry relative="1" as="geometry" />
        </mxCell>
        <mxCell id="cfKoiOyQj-taZWhqwXhv-10" value="下单" style="edgeLabel;html=1;align=center;verticalAlign=middle;resizable=0;points=[];" vertex="1" connectable="0" parent="cfKoiOyQj-taZWhqwXhv-8">
          <mxGeometry x="-0.0133" y="-2" relative="1" as="geometry">
            <mxPoint as="offset" />
          </mxGeometry>
        </mxCell>
        <mxCell id="cfKoiOyQj-taZWhqwXhv-1" value="客户" style="rounded=1;whiteSpace=wrap;html=1;flipH=1;fillColor=#ffe6cc;strokeColor=#d79b00;" vertex="1" parent="1">
          <mxGeometry x="80" y="310" width="120" height="60" as="geometry" />
        </mxCell>
        <mxCell id="cfKoiOyQj-taZWhqwXhv-9" style="edgeStyle=orthogonalEdgeStyle;rounded=0;orthogonalLoop=1;jettySize=auto;html=1;exitX=1;exitY=0.5;exitDx=0;exitDy=0;entryX=0;entryY=0.5;entryDx=0;entryDy=0;" edge="1" parent="1" source="cfKoiOyQj-taZWhqwXhv-2" target="cfKoiOyQj-taZWhqwXhv-3">
          <mxGeometry relative="1" as="geometry" />
        </mxCell>
        <mxCell id="cfKoiOyQj-taZWhqwXhv-11" value="配送" style="edgeLabel;html=1;align=center;verticalAlign=middle;resizable=0;points=[];" vertex="1" connectable="0" parent="cfKoiOyQj-taZWhqwXhv-9">
          <mxGeometry x="0.0667" y="-2" relative="1" as="geometry">
            <mxPoint as="offset" />
          </mxGeometry>
        </mxCell>
        <mxCell id="cfKoiOyQj-taZWhqwXhv-2" value="前仓" style="rounded=1;whiteSpace=wrap;html=1;flipH=1;fillColor=#d5e8d4;strokeColor=#82b366;" vertex="1" parent="1">
          <mxGeometry x="275" y="310" width="120" height="60" as="geometry" />
        </mxCell>
        <mxCell id="cfKoiOyQj-taZWhqwXhv-3" value="客户" style="rounded=1;whiteSpace=wrap;html=1;flipH=1;fillColor=#ffe6cc;strokeColor=#d79b00;" vertex="1" parent="1">
          <mxGeometry x="470" y="310" width="120" height="60" as="geometry" />
        </mxCell>
        <mxCell id="cfKoiOyQj-taZWhqwXhv-4" value="" style="shape=curlyBracket;whiteSpace=wrap;html=1;rounded=1;labelPosition=left;verticalLabelPosition=middle;align=right;verticalAlign=middle;direction=south;" vertex="1" parent="1">
          <mxGeometry x="150" y="270" width="190" height="20" as="geometry" />
        </mxCell>
        <mxCell id="cfKoiOyQj-taZWhqwXhv-5" value="总订单周期时间" style="text;html=1;align=center;verticalAlign=middle;whiteSpace=wrap;rounded=0;" vertex="1" parent="1">
          <mxGeometry x="200" y="240" width="90" height="30" as="geometry" />
        </mxCell>
        <mxCell id="cfKoiOyQj-taZWhqwXhv-6" value="" style="shape=curlyBracket;whiteSpace=wrap;html=1;rounded=1;labelPosition=left;verticalLabelPosition=middle;align=right;verticalAlign=middle;direction=south;" vertex="1" parent="1">
          <mxGeometry x="150" y="190" width="370" height="20" as="geometry" />
        </mxCell>
        <mxCell id="cfKoiOyQj-taZWhqwXhv-7" value="订单交付周期" style="text;html=1;align=center;verticalAlign=middle;whiteSpace=wrap;rounded=0;" vertex="1" parent="1">
          <mxGeometry x="290" y="160" width="90" height="30" as="geometry" />
        </mxCell>
      </root>
    </mxGraphModel>
  </diagram>
</mxfile>
